<svg xmlns="http://www.w3.org/2000/svg" width="22" height="25" viewBox="0 0 22 25">
    <g fill="#000" fill-rule="evenodd" stroke="#FFF" stroke-width=".5">
        <path d="M18.794 13.378a.554.554 0 0 0-.555.554v8.77a.197.197 0 0 1-.2.196H2.506a.39.39 0 0 1-.395-.395V6.6h2.948c.856 0 1.548-.694 1.548-1.546V2.11h10.98c.248 0 .447.2.447.447v1.765a.554.554 0 1 0 1.11 0V2.556c0-.858-.698-1.556-1.557-1.556H6.05c-.02 0-.036 0-.056.003l-.023.003c-.01 0-.019.004-.032.004l-.026.006c-.01.004-.017.004-.026.007l-.026.01-.026.01c-.007.003-.017.006-.023.01a.097.097 0 0 0-.027.012c-.006.003-.013.01-.02.013l-.025.017c-.007.006-.017.01-.023.016l-.02.016-.039.036-4.496 4.493a.403.403 0 0 0-.036.039l-.016.02a.09.09 0 0 0-.016.022c-.007.007-.01.016-.017.023-.003.007-.01.013-.013.023-.003.01-.01.016-.013.026l-.01.023-.01.026-.009.026c-.003.01-.003.016-.007.026l-.006.026c-.003.01-.003.02-.003.03 0 .006-.004.016-.004.022C1 6.008 1 6.024 1 6.044v16.452C1 23.325 1.676 24 2.505 24H18.04c.721 0 1.309-.584 1.309-1.305v-8.763a.554.554 0 0 0-.555-.554zM5.496 5.052a.433.433 0 0 1-.438.437H2.894l2.602-2.6v2.163z"/>
        <path d="M20.469 6.761l-3.082-1.768a1.055 1.055 0 0 0-1.44.392l-2.544 4.443c-.14.245-.176.529-.1.8.022.08.055.16.094.234l-.793 1.387-1.812 1.223a1.75 1.75 0 0 0-.764 1.393l-.16 5.1H4.973a.554.554 0 1 0 0 1.109h5.473c.068.016.14.026.209.026a.77.77 0 0 0 .418-.118l.003-.003 4.59-2.887c.474-.297.777-.806.813-1.357l.144-2.18.8-1.396c.342-.01.676-.19.868-.496l.02-.033 2.543-4.433a1.047 1.047 0 0 0-.385-1.436zM15.6 14.118c-.003.003-.003.007-.003.01a.162.162 0 0 0-.017.032l-.01.02c-.003.01-.006.02-.013.03a.063.063 0 0 0-.006.022c-.003.01-.007.017-.007.027l-.006.029-.003.022c-.004.01-.004.023-.004.033v.013l-.15 2.307a.633.633 0 0 1-.297.493l-4.1 2.577.15-4.835a.643.643 0 0 1 .277-.51l1.913-1.291.004-.003h.003c.013-.01.03-.02.042-.03l.003-.003a.176.176 0 0 0 .036-.036l.007-.006c.01-.01.016-.02.026-.03a.436.436 0 0 0 .01-.01c.01-.013.02-.022.026-.035.003-.004.006-.01.01-.013l.01-.017.783-1.367 2.103 1.204-.787 1.367zm1.776-2.081l-2.984-1.706 2.488-4.35 2.987 1.714-2.49 4.342z"/>
        <path d="M14.001 14.52a.556.556 0 0 0-.757.205l-1.685 2.936a.555.555 0 0 0 .963.552l1.685-2.937A.557.557 0 0 0 14 14.52z"/>
    </g>
</svg>
