<svg xmlns="http://www.w3.org/2000/svg" width="20" height="23" viewBox="0 0 20 23">
    <g fill="#000" fill-rule="evenodd">
        <path d="M19.984 8.935v-.991c0-.427-.107-.858-.315-1.248l-.939-1.788a.346.346 0 0 0-.03-.07.666.666 0 0 0-.051-.081l-1.18-2.242a.553.553 0 0 0-.741-.231.545.545 0 0 0-.233.736l.959 1.824-.227.112h-.003c-.71.348-1.053 1.136-.836 1.914 0 .003.003.006.003.01 0 .003 0 .003.003.006l.25.81v.007a2.153 2.153 0 0 0 1.444 1.402l.794.235v9.141c.004.36-.194.685-.54.884-.331.19-.74.19-1.07 0a.977.977 0 0 1-.515-.884V11.96c0-.892-.732-1.618-1.63-1.618H14.6V2.689C14.6 1.206 13.385 0 11.888 0H4.331C2.838 0 1.62 1.206 1.62 2.692v19.214H.55a.548.548 0 0 0-.55.547c0 .302.246.547.55.547h15.116c.304 0 .55-.245.55-.547a.548.548 0 0 0-.55-.547h-1.07V11.434h.529c.285 0 .528.241.528.525v6.522a2.08 2.08 0 0 0 1.062 1.836 2.19 2.19 0 0 0 1.089.293c.375 0 .751-.096 1.088-.293.687-.398 1.095-1.083 1.088-1.836V8.935h.004zM2.724 21.906V2.69c0-.882.723-1.599 1.61-1.599h7.558c.887 0 1.606.717 1.61 1.599v19.217H2.724zM18.406 8.06a1.058 1.058 0 0 1-.713-.688l-.246-.795c-.071-.267.036-.53.266-.643h.003l.246-.122.729 1.39c.123.231.188.488.188.74v.256l-.473-.138z"/>
        <path d="M10.81 2.68h-5.4c-.898 0-1.63.726-1.63 1.617V7.5c0 .892.732 1.618 1.63 1.618h5.396c.898 0 1.63-.726 1.63-1.618V4.297a1.622 1.622 0 0 0-1.626-1.618zm0 5.345h-5.4a.535.535 0 0 1-.528-.525V4.297c0-.283.243-.524.528-.524h5.396c.286 0 .529.241.529.524V7.5a.53.53 0 0 1-.525.525z"/>
    </g>
</svg>
