<svg xmlns="http://www.w3.org/2000/svg" width="23" height="23" viewBox="0 0 23 23">
    <g fill="#000" fill-rule="evenodd">
        <path d="M19.933 16.062c.19.093.42.016.514-.174a9.932 9.932 0 0 0 0-8.773.383.383 0 0 0-.688.34 9.166 9.166 0 0 1 0 8.093.383.383 0 0 0 .174.514zM15.333 6.9a1.15 1.15 0 0 0-1.15 1.15v2.3H12.65v-2.3a1.15 1.15 0 0 0-2.3 0v2.3H8.817v-2.3a1.15 1.15 0 0 0-2.3 0v6.9a1.15 1.15 0 0 0 2.3 0v-2.3h1.533v2.3a1.15 1.15 0 0 0 2.3 0v-2.3h1.533v2.3a1.15 1.15 0 0 0 2.3 0v-6.9a1.15 1.15 0 0 0-1.15-1.15zm.384 8.05a.383.383 0 0 1-.767 0v-2.683a.383.383 0 0 0-.383-.384h-2.3a.383.383 0 0 0-.384.384v2.683a.383.383 0 0 1-.766 0v-2.683a.383.383 0 0 0-.384-.384h-2.3a.383.383 0 0 0-.383.384v2.683a.383.383 0 0 1-.767 0v-6.9a.383.383 0 0 1 .767 0v2.683c0 .212.172.384.383.384h2.3a.383.383 0 0 0 .384-.384V8.05a.383.383 0 0 1 .766 0v2.683c0 .212.172.384.384.384h2.3a.383.383 0 0 0 .383-.384V8.05a.383.383 0 0 1 .767 0v6.9zM7.071 4.178l.212-.108v2.063a.383.383 0 0 0 .767 0V3.45a.383.383 0 0 0-.555-.343l-.766.383a.384.384 0 1 0 .342.686v.002zM11.5 5.75c-.208 0-.383-.132-.383-.287a.383.383 0 1 0-.767 0 1.154 1.154 0 0 0 2.3 0 .993.993 0 0 0-.268-.671.994.994 0 0 0 .268-.671 1.154 1.154 0 0 0-2.3 0 .383.383 0 0 0 .767 0c0-.156.175-.288.383-.288.208 0 .383.132.383.288 0 .156-.175.287-.383.287a.383.383 0 0 0 0 .767c.208 0 .383.132.383.288 0 .155-.175.287-.383.287zM16.1 3.833a.383.383 0 1 0 0-.766h-1.533a.383.383 0 0 0-.384.383V4.6c0 .212.172.383.384.383h.766c.104 0 .203.043.274.118a.366.366 0 0 1 .109.235.411.411 0 0 1-.314.407.383.383 0 0 1-.413-.208.383.383 0 1 0-.684.345 1.153 1.153 0 0 0 1.223.621c.528-.101.92-.55.948-1.087a.36.36 0 0 0 .007-.047V5.32c0-.006-.002-.01-.003-.015a1.154 1.154 0 0 0-1.147-1.09h-.383v-.383h1.15zM7.696 18.906c.926-.416 1.12-.921 1.12-1.273a1.15 1.15 0 1 0-2.3 0 .383.383 0 0 0 .767 0 .383.383 0 1 1 .767 0c0 .169-.256.389-.669.575a1.463 1.463 0 0 0-.864 1.342c0 .212.171.383.383.383h1.533a.383.383 0 0 0 0-.766H7.391a.71.71 0 0 1 .305-.261zM16.483 17.633a1.15 1.15 0 0 0-1.15-1.15h-.766a.383.383 0 0 0-.384.384v2.683a.383.383 0 1 0 .767 0v-.767h.178l.652.98a.383.383 0 0 0 .638-.426l-.485-.728a1.14 1.14 0 0 0 .55-.976zm-1.533-.383h.383a.383.383 0 1 1 0 .767h-.383v-.767zM12.267 18.017v-1.15a.383.383 0 0 0-.767 0v1.15h-.383v-1.15a.383.383 0 0 0-.767 0v1.15c0 .423.343.766.767.766h.383v.767a.383.383 0 1 0 .767 0v-.767a.383.383 0 1 0 0-.766z"/>
        <path d="M11.5 0C5.149 0 0 5.149 0 11.5S5.149 23 11.5 23 23 17.851 23 11.5C22.993 5.152 17.848.007 11.5 0zm0 22.233C5.572 22.233.767 17.428.767 11.5.767 5.572 5.572.767 11.5.767c5.928 0 10.733 4.805 10.733 10.733-.007 5.925-4.808 10.726-10.733 10.733z"/>
        <path d="M3.067 6.938a.383.383 0 0 0-.514.174 9.932 9.932 0 0 0 0 8.773.383.383 0 0 0 .688-.34 9.166 9.166 0 0 1 0-8.093.383.383 0 0 0-.174-.514z"/>
    </g>
</svg>
