<svg xmlns="http://www.w3.org/2000/svg" width="26" height="20" viewBox="0 0 26 20">
    <g fill="#000" fill-rule="evenodd">
        <path d="M25.544 8.038a.436.436 0 0 0-.41-.31H23.4a.444.444 0 0 0-.433.454v2.273H22.1V6.818a.444.444 0 0 0-.433-.454H18.2V4.09a.444.444 0 0 0-.433-.455h-3.034v-.909h5.634c.239 0 .433-.203.433-.454V.455A.444.444 0 0 0 20.367 0H6.5a.444.444 0 0 0-.433.455v1.818c0 .25.194.454.433.454h5.633v.91H9.1a.444.444 0 0 0-.433.454v2.484L6.37 8.182H3.9a.444.444 0 0 0-.433.454V10H2.6V6.364a.444.444 0 0 0-.433-.455H.433A.444.444 0 0 0 0 6.364v11.363c0 .251.194.455.433.455h1.734c.239 0 .433-.204.433-.455v-3.182h.867v1.364c0 .251.194.455.433.455h2.47l2.49 1.741c.072.05.155.076.24.077h.867v1.363c0 .251.194.455.433.455h6.067c.239 0 .433-.204.433-.455v-1.363h4.767c.239 0 .433-.204.433-.455v-3.636h.867v2.273c0 .25.194.454.433.454h1.733a.436.436 0 0 0 .411-.31l.434-1.364A.478.478 0 0 0 26 15V9.545a.478.478 0 0 0-.022-.143l-.434-1.364zm-18.61-6.22h13V.91h-13v.91zM13 3.636h.867v-.909H13v.91zM.867 17.273h.866V6.818H.867v10.455zM2.6 13.636h.867V10.91H2.6v2.727zm4.14 1.895a.422.422 0 0 0-.24-.076H4.333V9.09h1.734v2.727c0 .251.194.455.433.455.24 0 .433-.204.433-.455V8.88l2.408-1.682a.461.461 0 0 0 .192-.38V4.545h7.8v1.819H13a.444.444 0 0 0-.433.454c0 .251.194.455.433.455h6.5v10H9.23L6.74 15.53zm4.093 3.56h5.2v-.91h-5.2v.91zm9.534-1.818h.866v-10h-.866v10zm1.733-4.091h.867v-1.818H22.1v1.818zm3.033 1.744l-.312.983h-.988V8.636h.988l.312.983v5.307z"/>
        <path d="M10.833 7.273h.434c.239 0 .433-.204.433-.455a.444.444 0 0 0-.433-.454h-.434a.444.444 0 0 0-.433.454c0 .251.194.455.433.455zM6.5 13.182a.444.444 0 0 0-.433.454v.455c0 .25.194.454.433.454.24 0 .433-.203.433-.454v-.455a.444.444 0 0 0-.433-.454z"/>
    </g>
</svg>
