<svg xmlns="http://www.w3.org/2000/svg" width="23" height="23" viewBox="0 0 23 23">
    <path fill="#000" fill-rule="evenodd" d="M23 11.5C23 5.16 17.84 0 11.5 0S0 5.16 0 11.5a11.47 11.47 0 0 0 3.733 8.472l-.01.01.371.314c.025.02.051.037.076.058a17.305 17.305 0 0 0 .817.616c.224.153.452.3.687.437l.153.09c.256.145.52.284.787.408l.06.03c.873.403 1.806.702 2.78.88l.077.011c.303.054.609.095.92.123l.112.01c.308.025.62.041.937.041a11.615 11.615 0 0 0 1.045-.05c.309-.027.611-.069.911-.12l.08-.014a11.331 11.331 0 0 0 3.594-1.294l.183-.106c.225-.133.448-.27.662-.42.077-.05.153-.107.228-.163.184-.13.366-.267.54-.41l.12-.09.382-.32-.012-.01A11.463 11.463 0 0 0 23 11.5zm-22.163 0C.837 5.62 5.62.837 11.5.837c5.88 0 10.663 4.782 10.663 10.663 0 3.169-1.39 6.018-3.592 7.972a3.027 3.027 0 0 0-.374-.225l-3.54-1.77a.929.929 0 0 1-.515-.833v-1.238c.082-.1.17-.215.258-.341a8.485 8.485 0 0 0 1.094-2.142c.53-.251.872-.78.872-1.376v-1.482c0-.362-.133-.713-.37-.991V7.122c.02-.216.098-1.442-.788-2.452-.77-.878-2.018-1.326-3.708-1.326-1.69 0-2.938.448-3.708 1.326-.886 1.01-.809 2.236-.788 2.452v1.952c-.237.276-.37.629-.37.99v1.483c0 .462.206.89.56 1.18a7.794 7.794 0 0 0 1.294 2.671v1.21a.936.936 0 0 1-.486.82L4.694 19.23c-.104.057-.21.124-.314.2A10.642 10.642 0 0 1 .837 11.5zm16.92 8.627c-.147.106-.297.21-.448.309l-.208.134c-.198.123-.398.237-.604.347-.045.023-.09.045-.135.07a10.63 10.63 0 0 1-2.31.866h-.002a11.309 11.309 0 0 1-.843.173c-.259.04-.523.071-.784.096l-.141.01a10.255 10.255 0 0 1-1.71-.013 11.323 11.323 0 0 1-.791-.095l-.035-.006a10.851 10.851 0 0 1-1.676-.425 9.74 9.74 0 0 1-.778-.298c-.003 0-.005 0-.006-.002a10.84 10.84 0 0 1-.713-.341c-.03-.016-.061-.03-.092-.047a10.926 10.926 0 0 1-1.425-.917l.038-.022 3.308-1.803c.568-.31.921-.907.921-1.554v-1.507l-.096-.116a6.971 6.971 0 0 1-1.255-2.6l-.037-.165-.143-.092a.693.693 0 0 1-.323-.582v-1.482c0-.194.084-.376.233-.513l.139-.125V7.1l-.004-.055c0-.01-.125-1.017.584-1.824.604-.69 1.642-1.04 3.079-1.04 1.433 0 2.467.348 3.071 1.032.708.798.592 1.823.592 1.832l-.004 2.384.14.125a.686.686 0 0 1 .232.51v1.483c0 .298-.205.57-.494.66l-.209.063-.067.208a7.747 7.747 0 0 1-1.044 2.103c-.11.155-.216.292-.308.398l-.102.117v1.548c0 .673.374 1.28.976 1.582l3.541 1.77c.022.01.045.023.067.035-.045.033-.09.063-.134.096z"/>
</svg>
