<svg xmlns="http://www.w3.org/2000/svg" width="23" height="23" viewBox="0 0 23 23">
    <g fill="#0A090B" fill-rule="evenodd">
        <path d="M18.11 19.947l-.442-.609-.62.45.445.614c-.72.486-1.497.883-2.313 1.182l-.235-.724-.728.238.234.72c-.836.24-1.698.376-2.568.406v-.757h-.766v.757c-.869-.03-1.73-.167-2.566-.406l.234-.72-.728-.238-.237.724A10.73 10.73 0 0 1 5.507 20.4l.445-.614-.62-.45-.443.608a10.836 10.836 0 0 1-1.836-1.836l.609-.442-.451-.62-.614.444a10.727 10.727 0 0 1-1.179-2.311l.724-.235-.238-.728-.72.234a10.676 10.676 0 0 1-.408-2.568h.757v-.766H.776c.03-.869.167-1.73.406-2.566l.72.234.238-.728-.722-.237c.3-.816.697-1.593 1.183-2.313l.614.445.45-.62-.612-.443c.536-.683 1.153-1.3 1.836-1.836l.443.609.62-.45-.445-.614c.72-.485 1.497-.882 2.313-1.18l.235.724.728-.238-.234-.72c.836-.24 1.698-.377 2.568-.408v.757h.766V.776c.869.03 1.73.167 2.566.406l-.234.72.728.238.237-.722c.816.3 1.593.697 2.313 1.183l-.445.614.62.45.443-.608c.683.536 1.3 1.152 1.836 1.836l-.609.442.451.62.614-.444c.485.719.882 1.494 1.18 2.309l-.723.235.238.728.72-.234c.24.836.376 1.698.406 2.568h-.757v.766h.757c-.03.869-.167 1.73-.406 2.566l-.72-.234-.238.728.724.235a10.73 10.73 0 0 1-1.183 2.313l-.614-.444-.45.62.608.442c-.535.684-1.151 1.301-1.834 1.838zM11.5 0C5.149 0 0 5.149 0 11.5S5.149 23 11.5 23 23 17.851 23 11.5C22.993 5.152 17.848.007 11.5 0z"/>
        <path d="M11.5 19.167a7.667 7.667 0 1 1 7.667-7.667 7.675 7.675 0 0 1-7.667 7.667zm0-16.1a8.433 8.433 0 1 0 8.433 8.433A8.443 8.443 0 0 0 11.5 3.067z"/>
        <path d="M13.757 16.787l-.558-2.345a.383.383 0 0 1 .573-.416l2.051 1.251a5.777 5.777 0 0 1-2.065 1.51h-.001zm-3.788.25l.575-2.418a1.15 1.15 0 0 0-1.717-1.248l-2.122 1.295a5.712 5.712 0 0 1-.942-2.91l2.476-.2a1.15 1.15 0 0 0 .654-2.019L7.007 7.92a5.77 5.77 0 0 1 2.475-1.798l.955 2.294a1.15 1.15 0 0 0 2.123 0l.956-2.294A5.772 5.772 0 0 1 15.99 7.92l-1.883 1.617a1.15 1.15 0 0 0 .656 2.02l2.475.2a5.712 5.712 0 0 1-.942 2.91l-2.124-1.296a1.15 1.15 0 0 0-1.718 1.248l.575 2.418c-1 .284-2.059.284-3.059 0zm-2.795-1.76l2.052-1.251a.383.383 0 0 1 .573.416l-.557 2.345a5.777 5.777 0 0 1-2.066-1.51h-.002zM6.57 8.554l1.825 1.566a.383.383 0 0 1-.218.673l-2.401.194a5.7 5.7 0 0 1 .795-2.433H6.57zM12.78 5.9l-.926 2.223a.383.383 0 0 1-.708 0L10.22 5.9a5.581 5.581 0 0 1 2.56 0zm4.444 5.087l-2.4-.194a.383.383 0 0 1-.219-.672l1.824-1.565a5.7 5.7 0 0 1 .795 2.431zM11.5 4.983a6.517 6.517 0 1 0 6.517 6.517A6.524 6.524 0 0 0 11.5 4.983z"/>
        <path d="M11.5 12.267a.767.767 0 1 1 0-1.534.767.767 0 0 1 0 1.534zm1.533-.767a1.533 1.533 0 1 0-3.066 0 1.533 1.533 0 0 0 3.066 0z"/>
    </g>
</svg>
